<svg xmlns="http://www.w3.org/2000/svg" width="250" height="250" viewBox="0 0 250 250">
<g>
<path d="M 0.00 0.00 L 250.00 0.00 L 250.00 250.00 L 0.00 250.00 ZM 101.71 99.75 C101.99,100.99 102.56,102.00 102.98,102.00 C104.78,102.00 147.52,57.79 147.80,55.64 C148.19,52.63 127.98,31.99 124.66,32.02 C124.60,32.02 124.54,32.02 124.47,32.02 C124.04,32.02 123.69,32.02 123.34,32.08 C121.65,32.35 120.17,33.91 111.23,43.08 L 101.95 52.58 L 101.57 75.04 C101.36,87.39 101.42,98.51 101.71,99.75 ZM 112.35 141.81 C118.59,147.96 124.30,153.00 125.05,153.00 C127.12,153.00 149.00,130.67 149.00,128.55 C149.00,127.53 144.19,121.82 138.31,115.85 C130.28,107.70 126.98,105.00 125.07,105.00 C121.82,105.00 101.00,125.35 101.00,128.54 C101.00,129.86 105.14,134.69 112.35,141.81 ZM 148.23 104.73 C155.34,111.86 160.23,116.00 161.54,116.00 C164.60,116.00 185.26,94.79 184.83,92.09 C184.42,89.52 163.22,68.00 161.10,68.00 C159.09,68.00 137.00,89.97 137.00,91.97 C137.00,92.79 142.06,98.54 148.23,104.73 ZM 153.46 211.12 C163.31,215.60 174.48,211.84 178.99,202.53 C182.14,196.02 181.48,186.63 177.50,181.41 C173.32,175.93 169.44,174.01 162.57,174.00 C154.44,174.00 148.77,176.84 145.39,182.60 C139.05,193.41 142.68,206.22 153.46,211.12 ZM 187.00 174.00 L 187.00 213.00 L 195.76 213.00 C206.27,213.00 210.39,211.95 214.26,208.27 C219.84,202.97 221.98,195.34 219.97,187.87 C217.15,177.42 211.52,174.06 196.75,174.02 ZM 59.01 211.02 C59.85,212.59 61.11,213.00 65.09,213.00 C73.44,213.00 78.94,211.15 81.10,207.61 C83.88,203.05 83.56,198.41 80.24,195.09 L 77.49 192.33 L 79.35 189.14 C82.01,184.59 80.91,179.53 76.70,176.93 C74.12,175.35 72.03,175.02 66.00,175.23 L 58.50 175.50 L 58.23 192.27 C58.06,202.70 58.35,209.79 59.01,211.02 ZM 9.23 212.16 C12.71,214.37 13.00,213.27 13.00,198.00 C13.00,189.75 13.38,183.00 13.84,183.00 C14.30,183.00 16.77,188.51 19.34,195.25 C27.94,217.88 28.07,217.90 36.40,197.75 C39.75,189.64 42.83,183.00 43.22,183.00 C43.62,183.00 44.07,189.64 44.22,197.75 C44.49,211.74 44.60,212.50 46.50,212.50 C48.43,212.50 48.50,211.83 48.50,194.01 C48.50,176.90 48.36,175.50 46.67,175.18 C41.66,174.21 40.51,175.56 35.14,188.73 C32.28,195.75 29.57,202.10 29.11,202.83 C28.56,203.72 26.51,199.71 22.98,190.83 C20.07,183.50 17.23,176.91 16.68,176.20 C16.09,175.44 14.17,175.02 12.09,175.20 L 8.50 175.50 L 8.23 193.43 C8.02,207.10 8.25,211.54 9.23,212.16 ZM 169.67 205.30 C164.24,208.86 156.10,207.80 151.43,202.93 C147.60,198.92 146.87,190.13 149.97,185.19 C154.21,178.43 165.31,177.04 171.05,182.55 C177.78,188.99 177.08,200.44 169.67,205.30 ZM 210.61 203.72 C207.23,206.82 206.61,207.00 199.51,207.00 L 192.00 207.00 L 192.00 180.00 L 200.41 180.00 C208.58,180.00 208.90,180.09 211.41,183.08 C214.63,186.90 215.39,189.82 214.72,195.78 C214.30,199.48 213.47,201.10 210.61,203.72 ZM 73.86 104.31 C79.28,109.64 84.23,114.00 84.86,114.00 C85.68,114.00 86.00,107.80 86.00,92.00 C86.00,79.90 85.65,70.00 85.23,70.00 C83.42,70.00 64.00,90.66 64.00,92.58 C64.00,93.85 67.75,98.31 73.86,104.31 ZM 110.71 212.38 C111.10,212.77 112.34,212.95 113.46,212.79 C115.25,212.54 115.54,211.67 115.79,205.84 C116.07,199.61 116.31,199.00 119.41,196.63 L 122.74 194.10 L 124.72 196.30 C125.82,197.51 128.54,201.02 130.77,204.10 C133.01,207.18 135.58,210.44 136.49,211.35 C138.30,213.16 143.00,213.61 143.00,211.97 C143.00,211.41 139.36,206.12 134.92,200.22 L 126.83 189.50 L 134.44 182.50 C138.62,178.65 142.03,175.16 142.02,174.75 C142.01,174.34 140.54,174.02 138.75,174.04 C136.07,174.08 133.84,175.64 126.00,182.98 L 116.50 191.86 L 116.21 182.93 L 115.92 174.00 L 110.00 174.00 L 110.00 192.83 C110.00,203.19 110.32,211.99 110.71,212.38 ZM 226.71 212.38 C227.10,212.77 228.34,212.95 229.46,212.79 C231.42,212.51 231.51,211.76 231.77,193.25 L 232.04 174.00 L 226.00 174.00 L 226.00 192.83 C226.00,203.19 226.32,211.99 226.71,212.38 ZM 76.00 206.00 C74.54,207.46 72.67,208.00 69.09,208.00 L 64.19 208.00 L 63.78 202.25 C63.56,199.09 63.55,196.16 63.75,195.75 C63.95,195.34 66.14,195.00 68.60,195.00 C76.25,195.00 80.57,201.43 76.00,206.00 ZM 73.80 189.80 C72.49,191.11 64.41,191.47 63.66,190.25 C63.40,189.84 63.28,187.25 63.40,184.50 L 63.60 179.50 L 68.38 179.57 C71.37,179.61 73.49,180.17 74.06,181.07 C75.37,183.13 75.21,188.39 73.80,189.80 ZM 87.69 198.64 C88.12,199.74 89.82,200.02 94.86,199.79 C100.23,199.56 101.54,199.17 101.81,197.75 C102.10,196.22 101.28,196.00 95.24,196.00 C87.87,196.00 86.82,196.37 87.69,198.64 ZM 234.60 175.39 C235.25,177.10 240.00,176.98 240.00,175.25 C240.00,174.53 238.74,174.00 237.03,174.00 C234.91,174.00 234.21,174.40 234.60,175.39 Z" fill="rgb(18,18,18)"/>
<path d="M 101.71 99.75 C101.42,98.51 101.36,87.39 101.57,75.04 L 101.95 52.58 L 111.23 43.08 C120.17,33.91 121.65,32.35 123.34,32.08 C123.69,32.02 124.04,32.02 124.47,32.02 C124.54,32.02 124.60,32.02 124.66,32.02 C127.98,31.99 148.19,52.63 147.80,55.64 C147.52,57.79 104.78,102.00 102.98,102.00 C102.56,102.00 101.99,100.99 101.71,99.75 ZM 112.35 141.81 C105.14,134.69 101.00,129.86 101.00,128.54 C101.00,125.35 121.82,105.00 125.07,105.00 C126.98,105.00 130.28,107.70 138.31,115.85 C144.19,121.82 149.00,127.53 149.00,128.55 C149.00,130.67 127.12,153.00 125.05,153.00 C124.30,153.00 118.59,147.96 112.35,141.81 ZM 148.23 104.73 C142.06,98.54 137.00,92.79 137.00,91.97 C137.00,89.97 159.09,68.00 161.10,68.00 C163.22,68.00 184.42,89.52 184.83,92.09 C185.26,94.79 164.60,116.00 161.54,116.00 C160.23,116.00 155.34,111.86 148.23,104.73 ZM 73.86 104.31 C67.75,98.31 64.00,93.85 64.00,92.58 C64.00,90.66 83.42,70.00 85.23,70.00 C85.65,70.00 86.00,79.90 86.00,92.00 C86.00,107.80 85.68,114.00 84.86,114.00 C84.23,114.00 79.28,109.64 73.86,104.31 Z" fill="rgb(21,175,226)"/>
<path d="M 234.60 175.39 C234.21,174.40 234.91,174.00 237.03,174.00 C238.74,174.00 240.00,174.53 240.00,175.25 C240.00,176.98 235.25,177.10 234.60,175.39 Z" fill="rgb(61,95,106)"/>
<path d="M 9.23 212.16 C8.25,211.54 8.02,207.10 8.23,193.43 L 8.50 175.50 L 12.09 175.20 C14.17,175.02 16.09,175.44 16.68,176.20 C17.23,176.91 20.07,183.50 22.98,190.83 C26.51,199.71 28.56,203.72 29.11,202.83 C29.57,202.10 32.28,195.75 35.14,188.73 C40.51,175.56 41.66,174.21 46.67,175.18 C48.36,175.50 48.50,176.90 48.50,194.01 C48.50,211.83 48.43,212.50 46.50,212.50 C44.60,212.50 44.49,211.74 44.22,197.75 C44.07,189.64 43.62,183.00 43.22,183.00 C42.83,183.00 39.75,189.64 36.40,197.75 C28.07,217.90 27.94,217.88 19.34,195.25 C16.77,188.51 14.30,183.00 13.84,183.00 C13.38,183.00 13.00,189.75 13.00,198.00 C13.00,213.27 12.71,214.37 9.23,212.16 ZM 59.01 211.02 C58.35,209.79 58.06,202.70 58.23,192.27 L 58.50 175.50 L 66.00 175.23 C72.03,175.02 74.12,175.35 76.70,176.93 C80.91,179.53 82.01,184.59 79.35,189.14 L 77.49 192.33 L 80.24 195.09 C83.56,198.41 83.88,203.05 81.10,207.61 C78.94,211.15 73.44,213.00 65.09,213.00 C61.11,213.00 59.85,212.59 59.01,211.02 ZM 76.00 206.00 C80.57,201.43 76.25,195.00 68.60,195.00 C66.14,195.00 63.95,195.34 63.75,195.75 C63.55,196.16 63.56,199.09 63.78,202.25 L 64.19 208.00 L 69.09 208.00 C72.67,208.00 74.54,207.46 76.00,206.00 ZM 73.80 189.80 C75.21,188.39 75.37,183.13 74.06,181.07 C73.49,180.17 71.37,179.61 68.38,179.57 L 63.60 179.50 L 63.40 184.50 C63.28,187.25 63.40,189.84 63.66,190.25 C64.41,191.47 72.49,191.11 73.80,189.80 ZM 110.71 212.38 C110.32,211.99 110.00,203.19 110.00,192.83 L 110.00 174.00 L 112.96 174.00 L 115.92 174.00 L 116.21 182.93 L 116.50 191.86 L 126.00 182.98 C133.84,175.64 136.07,174.08 138.75,174.04 C140.54,174.02 142.01,174.34 142.02,174.75 C142.03,175.16 138.62,178.65 134.44,182.50 L 126.83 189.50 L 134.92 200.22 C139.36,206.12 143.00,211.41 143.00,211.97 C143.00,213.61 138.30,213.16 136.49,211.35 C135.58,210.44 133.01,207.18 130.77,204.10 C128.54,201.02 125.82,197.51 124.72,196.30 L 122.74 194.10 L 119.41 196.63 C116.31,199.00 116.07,199.61 115.79,205.84 C115.54,211.67 115.25,212.54 113.46,212.79 C112.34,212.95 111.10,212.77 110.71,212.38 ZM 153.46 211.12 C142.68,206.22 139.05,193.41 145.39,182.60 C148.77,176.84 154.44,174.00 162.57,174.00 C169.44,174.01 173.32,175.93 177.50,181.41 C181.48,186.63 182.14,196.02 178.99,202.53 C174.48,211.84 163.31,215.60 153.46,211.12 ZM 169.67 205.30 C177.08,200.44 177.78,188.99 171.05,182.55 C165.31,177.04 154.21,178.43 149.97,185.19 C146.87,190.13 147.60,198.92 151.43,202.93 C156.10,207.80 164.24,208.86 169.67,205.30 ZM 187.00 193.50 L 187.00 174.00 L 196.75 174.02 C211.52,174.06 217.15,177.42 219.97,187.87 C221.98,195.34 219.84,202.97 214.26,208.27 C210.39,211.95 206.27,213.00 195.76,213.00 L 187.00 213.00 L 187.00 193.50 ZM 210.61 203.72 C213.47,201.10 214.30,199.48 214.72,195.78 C215.39,189.82 214.63,186.90 211.41,183.08 C208.90,180.09 208.58,180.00 200.41,180.00 L 192.00 180.00 L 192.00 193.50 L 192.00 207.00 L 199.51 207.00 C206.61,207.00 207.23,206.82 210.61,203.72 ZM 226.71 212.38 C226.32,211.99 226.00,203.19 226.00,192.83 L 226.00 174.00 L 229.02 174.00 L 232.04 174.00 L 231.77 193.25 C231.51,211.76 231.42,212.51 229.46,212.79 C228.34,212.95 227.10,212.77 226.71,212.38 ZM 87.69 198.64 C86.82,196.37 87.87,196.00 95.24,196.00 C101.28,196.00 102.10,196.22 101.81,197.75 C101.54,199.17 100.23,199.56 94.86,199.79 C89.82,200.02 88.12,199.74 87.69,198.64 Z" fill="rgb(232,232,232)"/>
</g>
</svg>